<svg xmlns="http://www.w3.org/2000/svg" xmlns:xlink="http://www.w3.org/1999/xlink" version="1.1" x="0px" y="0px" viewBox="0 0 100 125" enable-background="new 0 0 100 100" xml:space="preserve"><g><g><path fill="#000000" d="M49.905,90.533c-1.368-0.002-2.686-0.067-3.979-0.194c-1.23-0.12-2.129-1.215-2.009-2.445    c0.12-1.229,1.22-2.134,2.445-2.009c1.151,0.112,2.325,0.17,3.49,0.172c1.078,0,2.111-0.044,3.122-0.129    c1.235-0.102,2.314,0.809,2.419,2.04c0.105,1.231-0.809,2.314-2.04,2.419C52.215,90.485,51.056,90.533,49.905,90.533z     M60.072,89.164c-0.982,0-1.882-0.651-2.156-1.643c-0.329-1.191,0.371-2.424,1.562-2.752c2.121-0.585,4.2-1.372,6.179-2.34    c1.109-0.541,2.449-0.083,2.993,1.028c0.543,1.11,0.083,2.45-1.028,2.993c-2.227,1.089-4.567,1.975-6.954,2.633    C60.469,89.138,60.269,89.164,60.072,89.164z M39.251,89.027c-0.206,0-0.416-0.029-0.625-0.089    c-2.378-0.69-4.705-1.607-6.917-2.724c-1.103-0.557-1.545-1.903-0.988-3.006c0.557-1.104,1.903-1.546,3.006-0.988    c1.966,0.993,4.034,1.808,6.146,2.421c1.187,0.345,1.869,1.586,1.525,2.772C41.115,88.391,40.221,89.027,39.251,89.027z     M72.639,83.026c-0.684,0-1.359-0.312-1.798-0.903c-0.737-0.992-0.53-2.394,0.462-3.13c1.769-1.314,3.426-2.798,4.925-4.412    c0.841-0.905,2.257-0.958,3.162-0.115c0.905,0.841,0.957,2.257,0.116,3.162c-1.685,1.813-3.547,3.481-5.534,4.958    C73.57,82.883,73.102,83.026,72.639,83.026z M26.769,82.725c-0.474,0-0.95-0.149-1.356-0.459c-1.967-1.5-3.807-3.193-5.469-5.03    c-0.829-0.916-0.759-2.331,0.158-3.16c0.916-0.829,2.331-0.759,3.16,0.157c1.479,1.635,3.116,3.14,4.866,4.476    c0.982,0.749,1.171,2.154,0.422,3.136C28.109,82.421,27.443,82.725,26.769,82.725z M82.152,72.782    c-0.41,0-0.824-0.112-1.196-0.348c-1.044-0.662-1.353-2.045-0.691-3.088c1.181-1.863,2.193-3.842,3.009-5.881    c0.458-1.147,1.762-1.704,2.908-1.247c1.147,0.459,1.706,1.761,1.247,2.908c-0.917,2.296-2.056,4.522-3.385,6.617    C83.618,72.415,82.893,72.782,82.152,72.782z M17.391,72.357c-0.751,0-1.484-0.378-1.907-1.064c-1.3-2.111-2.41-4.353-3.298-6.663    c-0.444-1.153,0.132-2.448,1.285-2.891c1.152-0.444,2.448,0.131,2.891,1.285c0.79,2.053,1.776,4.045,2.932,5.921    c0.648,1.052,0.321,2.43-0.731,3.078C18.196,72.249,17.791,72.357,17.391,72.357z M87.345,59.803    c-0.144,0-0.289-0.014-0.436-0.043c-1.212-0.239-2.001-1.416-1.762-2.628c0.425-2.151,0.653-4.364,0.678-6.575    c0.014-1.235,1.01-2.222,2.263-2.212c1.236,0.014,2.226,1.028,2.212,2.263c-0.029,2.485-0.285,4.971-0.763,7.39    C89.327,59.064,88.392,59.803,87.345,59.803z M12.369,59.308c-1.059,0-2-0.755-2.198-1.834C9.73,55.069,9.506,52.6,9.506,50.135    c0-0.337,0.004-0.612,0.01-0.888c0.027-1.235,1.049-2.244,2.285-2.188c1.235,0.027,2.215,1.05,2.188,2.286    c-0.005,0.244-0.008,0.489-0.008,0.735c0,2.249,0.199,4.446,0.592,6.585c0.223,1.215-0.581,2.382-1.796,2.605    C12.639,59.295,12.503,59.308,12.369,59.308z M87.503,45.823c-1.068,0-2.014-0.768-2.202-1.857    c-0.376-2.17-0.955-4.315-1.724-6.377c-0.431-1.158,0.157-2.447,1.315-2.878c1.158-0.433,2.447,0.158,2.878,1.315    c0.865,2.32,1.517,4.735,1.94,7.177c0.211,1.218-0.606,2.375-1.823,2.586C87.758,45.812,87.63,45.823,87.503,45.823z     M12.546,44.56c-0.151,0-0.304-0.016-0.458-0.047c-1.21-0.252-1.986-1.436-1.735-2.646c0.504-2.425,1.239-4.816,2.182-7.107    c0.47-1.142,1.777-1.689,2.921-1.217c1.142,0.471,1.687,1.779,1.217,2.921c-0.838,2.035-1.49,4.16-1.939,6.314    C14.514,43.834,13.584,44.56,12.546,44.56z M82.626,32.722c-0.759,0-1.499-0.386-1.919-1.084    c-1.134-1.885-2.451-3.677-3.914-5.327c-0.82-0.925-0.735-2.339,0.189-3.159c0.925-0.82,2.339-0.735,3.159,0.19    c1.645,1.855,3.125,3.87,4.401,5.989c0.637,1.059,0.295,2.433-0.764,3.071C83.417,32.618,83.019,32.722,82.626,32.722z     M17.863,31.633c-0.417,0-0.839-0.116-1.216-0.36c-1.037-0.673-1.332-2.058-0.659-3.095c1.347-2.076,2.894-4.039,4.598-5.837    c0.851-0.897,2.267-0.934,3.163-0.084c0.897,0.85,0.934,2.267,0.084,3.163c-1.516,1.599-2.893,3.346-4.091,5.193    C19.314,31.274,18.596,31.633,17.863,31.633z M73.346,22.258c-0.481,0-0.965-0.154-1.374-0.473    c-1.738-1.355-3.61-2.555-5.564-3.568c-1.097-0.569-1.525-1.92-0.956-3.017c0.568-1.097,1.918-1.524,3.016-0.956    c2.197,1.139,4.301,2.489,6.255,4.012c0.975,0.76,1.149,2.166,0.389,3.14C74.671,21.962,74.012,22.258,73.346,22.258z     M27.489,21.486c-0.692,0-1.374-0.32-1.812-0.921c-0.727-0.999-0.505-2.399,0.494-3.126c2.005-1.458,4.154-2.736,6.388-3.799    c1.116-0.531,2.451-0.057,2.982,1.059c0.531,1.116,0.057,2.45-1.058,2.982c-1.986,0.945-3.897,2.082-5.68,3.379    C28.406,21.347,27.945,21.486,27.489,21.486z M60.935,15.829c-0.214,0-0.431-0.031-0.646-0.096    c-2.104-0.634-4.283-1.076-6.475-1.314c-1.229-0.133-2.117-1.237-1.984-2.465c0.133-1.228,1.237-2.12,2.465-1.983    c2.466,0.267,4.916,0.764,7.285,1.477c1.183,0.356,1.853,1.605,1.497,2.788C62.784,15.204,61.896,15.829,60.935,15.829z     M40.112,15.479c-0.991,0-1.896-0.663-2.162-1.666c-0.316-1.195,0.396-2.419,1.591-2.735c2.389-0.632,4.855-1.045,7.328-1.229    c1.228-0.091,2.306,0.833,2.397,2.065c0.092,1.232-0.833,2.306-2.065,2.397c-2.2,0.164-4.393,0.531-6.517,1.093    C40.493,15.454,40.301,15.479,40.112,15.479z"/></g><g><path fill="#000000" d="M67.688,69.313c-0.001,0-0.002,0-0.003,0l-35.48-0.052c-1.235-0.002-2.236-1.005-2.234-2.241    c0.002-1.235,1.003-2.234,2.237-2.234c0.001,0,0.002,0,0.003,0l35.48,0.052c1.235,0.002,2.236,1.005,2.234,2.241    C69.924,68.314,68.922,69.313,67.688,69.313z"/></g><g><circle fill="#000000" cx="63.622" cy="50.292" r="3.919"/></g><g><circle fill="#000000" cx="37.08" cy="50.528" r="3.919"/></g></g><text x="0" y="115" fill="#000000" font-size="5px" font-weight="bold" font-family="'Helvetica Neue', Helvetica, Arial-Unicode, Arial, Sans-serif">Created by Cards Against Humanity</text><text x="0" y="120" fill="#000000" font-size="5px" font-weight="bold" font-family="'Helvetica Neue', Helvetica, Arial-Unicode, Arial, Sans-serif">from the Noun Project</text></svg>