<svg xmlns="http://www.w3.org/2000/svg" xmlns:xlink="http://www.w3.org/1999/xlink" version="1.1" x="0px" y="0px" viewBox="0 0 100 125" enable-background="new 0 0 100 100" xml:space="preserve"><circle cx="53.443" cy="68.535" r="1.499"/><circle cx="50.721" cy="73.103" r="1.5"/><path d="M71.833,36.36c-3.506-5.067-8.909-5.906-9.957-6.023c-0.655-0.073-1.299-0.109-1.93-0.125  c0.14-0.132,0.281-0.255,0.419-0.393c1.581-1.581,2.826-3.34,3.505-4.953c1.152-2.736,0.314-4.155-0.287-4.756  c-0.394-0.394-1.106-0.863-2.268-0.863c-2.072,0-4.924,1.563-7.441,4.08c-0.823,0.823-1.549,1.694-2.157,2.568v-1.301  c0-0.808-0.655-1.463-1.463-1.463c-0.808,0-1.463,0.655-1.463,1.463v7.811c-1.799-1.157-4.461-2.207-8.256-2.207  c-0.794,0-1.623,0.047-2.462,0.141c-1.038,0.115-6.39,0.942-9.899,5.933c-0.253,0.36-0.331,0.814-0.211,1.238  c0.12,0.423,0.423,0.771,0.827,0.945c3.037,1.315,5,4.301,5,7.605c0,0.712-0.101,1.444-0.3,2.175  c-0.162,0.596,0.067,1.229,0.573,1.583c1.551,1.085,2.478,2.858,2.478,4.741c0,0.331-0.033,0.67-0.099,1.036  c-0.102,0.558,0.127,1.124,0.589,1.453c2.511,1.793,4.01,4.693,4.01,7.761c0,3.302-1.681,6.323-4.495,8.083  c-0.411,0.257-0.668,0.7-0.687,1.185s0.204,0.946,0.594,1.233c3.946,2.907,8.623,4.444,13.523,4.444  c4.786,0,9.372-1.469,13.262-4.248c0.354-0.253,0.577-0.65,0.608-1.085c0.031-0.434-0.132-0.859-0.445-1.16  c-2.093-2.01-3.245-4.707-3.245-7.594c0-3.463,1.709-6.708,4.57-8.68c0.559-0.386,0.779-1.104,0.532-1.737  c-0.621-1.591-0.936-3.245-0.936-4.916c0-4.932,2.688-9.477,7.016-11.861c0.362-0.2,0.623-0.543,0.718-0.946  S72.068,36.7,71.833,36.36z M55.942,25.395c2.117-2.116,4.306-3.223,5.373-3.223c0.104,0,0.169,0.008,0.188,0.007  c0.178,0.515-0.504,2.869-3.206,5.571c-2.118,2.117-4.307,3.224-5.373,3.224c-0.088,0-0.146-0.008-0.175-0.008  c-0.006,0-0.011,0-0.014,0.001C52.558,30.454,53.238,28.098,55.942,25.395z M61.395,50.334c0,1.667,0.257,3.32,0.764,4.924  c-3.106,2.548-4.931,6.361-4.931,10.408c0,1.046,0.128,2.069,0.357,3.062c-0.763,0.068-1.365,0.705-1.365,1.486  c0,0.827,0.673,1.5,1.499,1.5c0.306,0,0.59-0.093,0.827-0.251c0.435,0.907,0.965,1.771,1.603,2.568  c-3.072,1.834-6.558,2.796-10.175,2.796c-3.604,0-7.067-0.953-10.128-2.772c2.61-2.343,4.118-5.668,4.118-9.247  c0-3.712-1.677-7.236-4.526-9.596c0.018-0.22,0.026-0.438,0.026-0.654c0-2.5-1.082-4.869-2.934-6.514  c0.122-0.665,0.184-1.329,0.184-1.986c0-3.832-1.949-7.347-5.092-9.393c2.694-2.825,6.052-3.341,6.773-3.421  c0.733-0.082,1.453-0.123,2.14-0.123c4.81,0,7.297,1.964,8.352,3.135c0.277,0.308,0.672,0.484,1.086,0.484c0,0,0,0,0,0  c0.414,0,0.809-0.176,1.087-0.483c1.056-1.171,3.545-3.135,8.353-3.135c0.687,0,1.406,0.042,2.139,0.123  c0.736,0.082,4.196,0.617,6.911,3.573C64.065,39.877,61.395,44.913,61.395,50.334z"/><text x="0" y="115" fill="#000000" font-size="5px" font-weight="bold" font-family="'Helvetica Neue', Helvetica, Arial-Unicode, Arial, Sans-serif">Created by Gregory Sujkowski</text><text x="0" y="120" fill="#000000" font-size="5px" font-weight="bold" font-family="'Helvetica Neue', Helvetica, Arial-Unicode, Arial, Sans-serif">from the Noun Project</text></svg>